<?xml version="1.0" encoding="utf-8"?>
<!-- Generator: Adobe Illustrator 24.2.1, SVG Export Plug-In . SVG Version: 6.00 Build 0)  -->
<svg version="1.1" id="Layer_1" xmlns="http://www.w3.org/2000/svg" xmlns:xlink="http://www.w3.org/1999/xlink" x="0px" y="0px"
	 viewBox="0 0 310.4 309.5" style="enable-background:new 0 0 310.4 309.5;" xml:space="preserve">
<style type="text/css">
	.st0{opacity:0.2;}
	.st1{opacity:0.2;fill:none;stroke:#FFDA60;stroke-width:16;stroke-miterlimit:10;}
	.st2{opacity:0.2;fill:none;stroke:#F16873;stroke-width:16;stroke-miterlimit:10;}
	.st3{opacity:0.2;fill:none;stroke:#C181B8;stroke-width:16;stroke-miterlimit:10;}
	.st4{opacity:0.2;fill:none;stroke:#F79051;stroke-width:16;stroke-miterlimit:10;}
	.st5{clip-path:url(#SVGID_2_);fill:none;stroke:#FFDA60;stroke-width:16;stroke-miterlimit:10;}
	.st6{clip-path:url(#SVGID_4_);fill:none;stroke:#F16873;stroke-width:16;stroke-miterlimit:10;}
	.st7{clip-path:url(#SVGID_6_);fill:none;stroke:#C181B8;stroke-width:16;stroke-miterlimit:10;}
	.st8{clip-path:url(#SVGID_8_);fill:none;stroke:#F79051;stroke-width:16;stroke-miterlimit:10;}
	.st9{fill:none;stroke:#FFFFFF;stroke-miterlimit:10;}
</style>
<g class="st0">
	<circle class="st1" cx="154.9" cy="154.8" r="86.5"/>
	<circle class="st2" cx="154.9" cy="154.8" r="106"/>
	<circle class="st3" cx="154.9" cy="154.8" r="125.3"/>
	<circle class="st4" cx="154.9" cy="154.8" r="144.5"/>
	<g>
		<defs>
			<polygon id="SVGID_1_" points="154.9,-4.1 154.9,165.8 242.7,253.6 372.9,129 			"/>
		</defs>
		<clipPath id="SVGID_2_">
			<use xlink:href="#SVGID_1_"  style="overflow:visible;"/>
		</clipPath>
		<path class="st5" d="M241.4,154.8c0,9.8-1.6,19.1-4.6,27.9c-11.6,34.1-43.9,58.6-81.9,58.6c-47.8,0-86.5-38.7-86.5-86.5
			c0-46.8,37.1-84.9,83.5-86.5c1,0,2-0.1,3-0.1C202.7,68.3,241.4,107,241.4,154.8z"/>
	</g>
	<g>
		<defs>
			<polygon id="SVGID_3_" points="154.9,-12.8 154.9,154.8 98.1,348.5 340.3,353 348.3,1.3 			"/>
		</defs>
		<clipPath id="SVGID_4_">
			<use xlink:href="#SVGID_3_"  style="overflow:visible;"/>
		</clipPath>
		<circle class="st6" cx="154.9" cy="154.8" r="106"/>
	</g>
	<g>
		<defs>
			<polygon id="SVGID_5_" points="154.9,-21.5 154.9,154.8 -42.2,289.7 236.5,369.7 380.9,241.3 380.9,0.5 			"/>
		</defs>
		<clipPath id="SVGID_6_">
			<use xlink:href="#SVGID_5_"  style="overflow:visible;"/>
		</clipPath>
		<circle class="st7" cx="154.9" cy="154.8" r="125.3"/>
	</g>
	<g>
		<defs>
			<polygon id="SVGID_7_" points="154.9,-27.6 154.9,154.8 -69.1,76.7 -37.2,314.4 290.7,378.4 389.6,145.7 352.1,-11.3 			"/>
		</defs>
		<clipPath id="SVGID_8_">
			<use xlink:href="#SVGID_7_"  style="overflow:visible;"/>
		</clipPath>
		<circle class="st8" cx="154.9" cy="154.8" r="144.5"/>
	</g>
	<line class="st9" x1="154.9" y1="-2.2" x2="154.9" y2="80.9"/>
	<line class="st9" x1="203.6" y1="214.5" x2="216.9" y2="227.8"/>
	<line class="st9" x1="127.7" y1="247.5" x2="122.6" y2="264.8"/>
	<line class="st9" x1="59.3" y1="220.3" x2="43.8" y2="230.9"/>
	<line class="st9" x1="9.5" y1="104.1" x2="26.9" y2="110.2"/>
</g>
</svg>
