<?xml version="1.0" encoding="utf-8"?>
<!-- Generator: Adobe Illustrator 25.2.0, SVG Export Plug-In . SVG Version: 6.00 Build 0)  -->
<svg version="1.1" xmlns="http://www.w3.org/2000/svg" xmlns:xlink="http://www.w3.org/1999/xlink" x="0px" y="0px"
	 viewBox="0 0 1251.9 417.3" style="enable-background:new 0 0 1251.9 417.3;" xml:space="preserve">
<style type="text/css">
	.st0{fill:#FFF;}
	.st1{fill:#078D93;}
	.st2{fill:#9BCC58;}
	.st3{fill:#16AA4B;}
	.st4{fill:#FFF;}
</style>
<g id="Layer_1">
	<g>
		<path class="st0" d="M188,182.2c-0.4,1.3-0.6,2.6-0.7,3.9c-1,21.3,6.9,39.4,23.8,54.6c5.4,4.8,10.6,9.9,15.7,15.2
			c3.8,3.8,5.5,8.6,5,14.1c0,1.5-0.1,3-0.1,4.6c0,9.2-0.6,18.4-1.8,27.5c-3.4,25.4-11.1,49.4-23.1,72.1c4.6-3.7,8.9-7.5,13-11.8
			c13.3-14,23.1-30.1,29.5-48.4c2.4-0.7,4.8-0.5,6.9,1c0.4,0.3,0.7,0.5,1,1c1.6,2,2.6,4.3,3.2,6.9c6.6,27.6,13.1,55.5,19.5,83.4
			l0.8-5.7l-0.4-147.1l0.5-2.6c4.6-3.4,9.2-6.9,13.6-10.4c12.8-10.1,21.5-22.6,26.3-37.5c1.7-8,1.1-16-1.8-23.8
			c-1.9,4.7-4.2,9.1-7,13.4c-10.1,16-23.6,28.2-40.5,36.6c-1,2.3-2.3,4.3-4.1,6.1c-0.3,0.2-0.6,0.6-0.9,0.8
			c-2.3,2.1-5.1,3.5-8.4,4.4c-10.1,2.2-17.4-1.4-22.1-10.7c-2.2,0.1-4.4-0.6-6.3-1.8C211.5,216.6,197.7,201.4,188,182.2z"/>
	</g>
	<circle class="st0" cx="253" cy="208.6" r="20.9"/>
</g>
<g id="Layer_5">
	<g>
		<path class="st1" d="M378.6,130.3c-6-1.6-12-1.9-18.2-0.8c-6.5,1.2-12.8,3.5-18.6,6.9c-4.5,2.5-8.2,5.8-11.4,9.8
			c-1.8,2.3-2.5,4.8-2.1,7.7c0.3,1.5,0.6,2.8,1,4.3l7-4.3c-1.8,1.7-3,3.9-3.8,6.3c-0.6,1.8-0.2,3.4,0.9,4.8c1.5,1.7,3.4,2.9,5.7,3.5
			c4.1,1,8.3,1.5,12.4,1.1c0.9-0.2,1.9-0.4,2.9-0.6c6-1.6,11-4.5,15.4-9c1.6-1.6,3-3.5,4-5.5c4.3-8.3,11-13.1,20.1-14.3l1.8-1.6
			C390.6,134.7,384.9,132,378.6,130.3z"/>
		<path class="st1" d="M388.4,181.6c-1-0.2-2-0.4-3-0.7c-4.4-1.7-8.6-3.5-12.6-5.7c-7.6-1.9-14.4-0.3-20.4,4.9
			c-1.8,1.4-2.6,3.4-2.4,5.6c0.2,1.2,1,2.1,1.8,2.8c1.2,0.8,2.3,1.1,3.5,1.3l-5.7-0.3c-0.1,1.4,0.4,2.9,1.2,4.3
			c0.7,1.3,1.9,2.1,3.3,2.6c5.2,2.2,10.7,3.3,16.4,2.8c3.1-0.3,6.1-1.1,9-2.3c7.7-3.1,13.5-8.4,17.1-15.9c-1.3,0.2-2.7,0.3-3.9,0.6
			C391.1,181.6,389.7,181.7,388.4,181.6z"/>
		<path class="st1" d="M313.1,255c0,0.7,0,1.3,0.4,2c1.9,3.6,4.6,6.1,8.5,7.4c4.9,1.3,9.7,1.1,14.4-1c0.8-0.3,1.6-0.4,2.5-0.4
			c2.6,0,5,0.6,7.2,1.9l1.1,0c-1.7-6.8-5.4-11.9-11.3-15.5c-5.3-2.8-10.9-3.9-16.8-3.5c-3.1,0.4-5,2-5.7,5l4.3,0.6
			C314.9,251.4,313.4,252.4,313.1,255z"/>
		<path class="st1" d="M220.1,58.1c-0.5,4.1,0.2,8.1,1.8,11.8c1.9,4,4.8,6.8,8.8,8.3c1.7,0.7,3.4,0.5,4.8-0.3
			c0.1-0.2,0.2-0.3,0.3-0.4c0.6-0.8,0.9-1.7,0.8-2.6c0-0.3,0-0.6,0-0.9c-0.1-0.4-0.1-0.9-0.2-1.3l1.8,4c3-1.8,4.1-4.5,3.1-8.2
			c-0.4-1.6-1-3.3-1.7-5.1c-1.3-3.2-3.3-6.2-5.8-8.7c-5-4.9-10.9-7.3-17.9-7.3l0.3,1.3c1.9,1.6,3.1,3.5,3.6,5.8
			C220.1,55.7,220.2,56.9,220.1,58.1z"/>
		<path class="st1" d="M322.8,36c0.3-3.5,0.2-6.8-0.2-10.2c-0.3-1.6-0.3-3.2,0.1-4.8c0.2-1.5,0.7-2.9,1.6-4.2
			c0.8-1.4,1.6-2.6,2.5-3.9l0.3-1.7c-8.5,0.5-15.8,3.8-21.8,9.7c-2.1,2.2-4,4.5-5.5,7.2c-3,5.4-4.6,11.1-4.7,17.3
			c0,1.5,0.4,2.8,1.3,4.1c0.9,1.2,2.1,2.2,3.5,2.7l1.9-5.5c-0.6,3.3,0.4,5.7,3,7.3c0.3,0.2,0.6,0.4,1.1,0.4c3.4-0.5,6.4-1.8,8.9-3.9
			c2.9-2.3,5-5.1,6.5-8.6C322.1,40,322.6,38.1,322.8,36z"/>
		<path class="st1" d="M147,41.7c-6.7-2-13.1-1.2-19.2,2.2l0.8,1c4.4,1.1,7.4,3.8,9.1,8c1.8,4.6,5.1,7.8,9.9,9.6
			c3.4,1.2,6.7,1.3,10.1,0.2c0.5-0.2,0.8-0.5,1.1-0.8c1.4-2.1,1.1-4.1-0.8-6l3.5,2.6c0.7-0.8,1-1.8,1-3.1c0-1-0.2-2.1-0.9-3
			C158,47,153.1,43.5,147,41.7z"/>
		<path class="st1" d="M189.2,134.7c1.1,2.2,2.4,4.5,3.9,6.5c0.6,0.5,1.1,1.1,1.7,1.6c4.5,3.9,9.7,5.1,15.4,3.5
			c0.5-0.1,0.9-0.4,1.1-0.9c1.4-2.1,1.1-4.1-0.7-6l3.4,2.6c1.5-2,1.5-4.1,0.2-6.2c-2.6-3.9-5.9-6.9-10-8.9c-8-4-16-3.9-23.9,0.5
			l0.9,1c2.3,0.5,4.3,1.6,5.9,3.4C188,132.7,188.6,133.7,189.2,134.7z"/>
		<path class="st1" d="M197,178.9l-1-0.3c-0.7,7,1.6,12.9,6.7,17.6c3.1,2.9,7,4.8,11.4,5.4c0.5,0.1,1.1,0.1,1.7,0.1
			c1.4-0.3,2.4-1.1,3-2.2l-3.2-1.8c2.1,0.9,3.7,0.4,4.7-1.4c0.3-0.3,0.4-0.7,0.3-1.1c-0.4-3.7-2-6.6-4.8-8.8
			c-3.4-2.4-7.1-3.5-11.2-3.2c-2-0.1-3.8-0.9-5.4-2.2C198.4,180.3,197.7,179.6,197,178.9z"/>
		<path class="st1" d="M184.5,217c0-0.4,0-0.9-0.3-1.2c-1.5-2.8-4-4.3-7.3-4.3l6.7-1c-0.2-0.5-0.4-1.1-0.7-1.6
			c-2.1-4.2-5.4-6.3-10.2-6.2c-8.4-0.1-16.4,1.8-23.7,5.8c-2.2,1.2-4.2,2.7-6,4.5c-5.9,5.4-9.7,11.9-11.7,19.5l1.9,0.1
			c2.3-1.6,4.8-2.6,7.5-3c3.8-0.6,7.6-0.2,11.2,1.4c7.1,2.9,14.2,2.7,21.3-0.7c4.3-2.1,7.6-5.1,10.1-9.2
			C184.1,219.9,184.5,218.5,184.5,217z"/>
		<path class="st1" d="M345.3,108.3c-6-2.3-11.9-2.3-17.7,0c-6.2,2.4-10.8,6.4-14,12.1c-1.5,2.6-1.3,5,0.6,7.3l3-3.2
			c-1.7,2.2-1.6,4.2,0.2,5.9c0.5,0.5,1,0.8,1.8,0.8c0.8,0.2,1.6,0.3,2.5,0.3c5.1-0.3,9.2-2.6,12.2-6.8c1.4-1.8,2.3-3.8,2.9-6.1
			c1-4.4,3.6-7.4,7.8-9.2L345.3,108.3z"/>
		<path class="st1" d="M290.6,182.7c-4.9,1.7-8,4.9-9.3,9.8c-0.2,0.6-0.2,1.4-0.1,2c0.6,2.4,2.1,3.1,4.7,2.2l-3.2,1.8
			c0.6,1.1,1.6,1.9,2.9,2.2c2,0.3,3.8,0.2,5.6-0.7c3.2-1.4,6.1-3.4,8.6-5.9c4.5-4.6,6.4-10.1,5.7-16.5l-1.1,0.3
			c-0.7,1.1-1.8,2.1-3.2,2.8c-0.9,0.5-1.8,0.8-2.8,1C295.8,182.1,293.2,182.5,290.6,182.7z"/>
	</g>
</g>
<g id="Layer_4">
	<path class="st2" d="M363.1,81c0.8-1,1.4-2.1,1.8-3.3c2.2-6.3,6.2-10.8,12.2-13.2c0.8-0.3,1.7-0.5,2.5-0.8l1.2-1.3
		c-7.2-4.1-14.9-5.7-22.9-4.7c-4.1,0.5-8,1.7-11.6,3.5c-5.2,2.9-9.7,6.7-13.3,11.3c-2.6,3.4-2.8,7-0.7,10.7l4.9-3.9l-1.2,1.6
		c-1.6,2.5-1.6,4.8,0.1,7c0.2,0.4,0.5,0.7,1,1c6.5,2.4,12.9,1.8,19-1.9C358.9,85.4,361.2,83.5,363.1,81z"/>
	<path class="st2" d="M261.6,2.5c-5.8,2.4-10.5,6-14.3,10.8c-3.7,4.7-6,10.1-6.9,16.1c-0.6,5.4-0.1,10.6,1.5,15.7
		c0.5,1.4,1.4,2.6,2.7,3.5c1.2,0.9,2.6,1.4,4.1,1.5l0.1-5.7c0.4,2.8,1.9,4.8,4.5,5.8c0.4,0.1,0.8,0.1,1.1,0c2.5-0.7,4.6-2.1,6.4-4.2
		c3-3.6,4.6-7.7,5-12.5c0.3-3.7-0.5-7.1-2.3-10.3c-1.3-2.3-2.3-4.8-2.9-7.4c-0.8-3.1-0.8-6.2,0.1-9.3C261,5.2,261.3,3.9,261.6,2.5z"
		/>
	<path class="st2" d="M198.1,56.7c1.5-2.3,2.4-4.8,2.6-7.6c0.8-8-1.7-14.9-7.4-20.6c-2.3-2.3-5-4.3-8.3-5.7
		c-1.2-0.6-2.5-1.4-3.5-2.4c-3.4-3.2-5.5-7.2-6.1-11.9L174,7c-3.4,5.2-5.6,10.8-6.6,16.9c-0.9,6-0.4,11.7,1.6,17.3
		c2.3,6.2,5.6,11.7,10,16.6c2.2,2.4,4.8,3.9,8.1,4.2c1.8,0,3.5-0.3,5.1-1.2l-3.9-5.6c2,1.8,4.3,2.8,6.9,3.1
		C196.5,58.2,197.4,57.7,198.1,56.7z"/>
	<path class="st2" d="M273,58.4c-5.1,3.5-9.1,8.1-12.1,13.6c-3.2,5.9-5.3,12.1-6.3,18.7c-0.8,4.6-0.8,9.2,0,14
		c0.5,3.2,2.2,5.8,5,7.7c1.2,0.8,2.5,1.4,4,1.7l1.1-8c0.3,2.9,1.4,5.4,3.1,7.6c1.2,1.5,2.7,2,4.5,1.5c2.6-0.5,5-1.7,7-3.3
		c4.1-3.4,7.2-7.4,9.1-12.2c2.6-6.3,3-12.5,1.3-18.9c-0.5-1.8-1-3.6-1.7-5.3c-2.9-8-2.2-15.6,2.3-22.8v-2.5
		C284.1,51.9,278.3,54.7,273,58.4z"/>
	<path class="st2" d="M309.3,62.7l-0.4,1.2c0.4,1.8,0.5,3.5,0.2,5.3c-0.3,1.1-0.7,2.2-1.3,3.1c-1.5,2.7-3.1,5.4-4.8,8.1
		c-1.6,4.2-1.6,8.3-0.1,12.4c1,2.7,2.8,4.7,5.3,6.1c0.1,0,0.2,0,0.4,0c1.1,0,2-0.5,2.6-1.3c0.6-0.7,1.1-1.6,1.5-2.4l-0.9,4.2
		c2.5,0.3,4.5-0.6,5.8-2.7c0.5-0.8,0.8-1.5,1.2-2.3c2.3-5.7,2.6-11.4,1-17.2C318.3,71,314.8,66.2,309.3,62.7z"/>
	<path class="st2" d="M118.6,134.8c1.6,0.9,3.1,1.7,4.7,2.4c4.9,1.8,10,1.8,15.1,0.2c3.7-1.4,6.9-3.7,9.2-6.8c0.7-0.7,0.9-1.6,1-2.4
		c0.1-3.3-1.6-5.3-5.3-6l5.9,0.2c-0.3-4-2.4-6.5-6.3-7.6c-6.1-1.9-12.3-2.1-18.6-0.9c-4.5,0.8-8.5,2.6-12.2,5.3
		c-4.8,3.5-8.7,8.1-11.5,13.7l1.8,0.4C108.1,131,113.5,131.5,118.6,134.8z"/>
	<path class="st2" d="M133,191.9c0.2-1.2-0.1-2.1-1-2.9c-2.7-2.4-5.9-3.7-9.6-4.1c-5.8-0.5-11,1.3-15.3,5.6
		c-1.2,1.1-2.4,2.2-3.6,3.4c-3.2,3.1-7.1,4.3-11.6,3.8l-1.4,0.8c4.6,5.2,10.3,8.5,17.1,9.7c4.8,0.8,9.5,0.4,14.2-0.9
		c3.6-1.1,6.8-2.7,9.8-4.9c2.7-2,3.7-4.7,2.9-7.8l-5,1.8C131.3,195.5,132.5,194,133,191.9z"/>
	<path class="st2" d="M105.2,74c-0.3,6.3,1.6,11.9,5.6,16.9c2.1,2.8,4.6,5,7.6,6.7c3,1.6,6.1,2.7,9.5,3.1c2.4,0,4.2-1,5.6-3.2
		l-4.1-1.8c2.6,0.7,4.4,0,5.5-2.2c0.3-0.5,0.4-1.1,0.2-1.8c-0.7-4-2.8-7.2-6.1-9.6c-2.8-2.1-6-3.2-9.3-3.2c-5.3,1-9.8-0.5-13.5-4.3
		C105.9,74.4,105.6,74.2,105.2,74z"/>
	<path class="st2" d="M148.4,76.8l-1.9-0.8c-1,6-0.7,12.1,0.8,18.2c1.5,5.7,4.3,10.8,8.5,15.2c4.6,4.6,9.9,8.3,15.8,11.1
		c2.4,1,4.8,1.4,7.4,1c2.5-0.5,4.4-1.6,5.8-3.6l-5.6-3.7c2.2,0.9,4.5,1,6.8,0.3c1.7-0.5,2.7-1.7,2.8-3.6c0.2-2.9-0.3-5.7-1.4-8.6
		c-2.9-7.4-8.2-12.3-15.8-14.9c-2.3-0.7-4.7-1.1-7.1-1C157.5,85.8,152.1,82.7,148.4,76.8z"/>
	<path class="st2" d="M208.3,79c-1.8-1.7-3-3.7-3.5-6l-1-0.8c-3.3,6.2-3.9,12.6-1.8,19.2c2,6.7,6.1,11.6,12.1,14.8
		c0.6,0.3,1.2,0.5,2,0.7c1.1-0.2,2.2-0.6,3.1-1.2l-2.8-3.5c2.1,1.9,4,2.2,6.1,0.7c0.6-0.3,0.9-0.9,1.1-1.7c0.8-4.1,0.3-7.8-1.7-11.3
		c-2.4-4.2-5.9-7.2-10.6-9.1C210.2,80.4,209.2,79.8,208.3,79z"/>
</g>
<g id="Layer_3">
	<path class="st3" d="M129.7,170.7c3.3,1.5,6.4,3.5,9.3,6c3.4,2.9,7.3,4.7,11.8,5.3c6.6,1.3,12.9,0.4,18.7-2.5c1.8-1,3.5-2,5.2-3
		c2-1.3,3.4-3,4.1-5.2c0.7-1.8,0.4-3.4-0.8-4.9c-1.5-1.9-3.5-3.4-5.9-4.4l8.1,1.5c0.1-2-0.2-3.7-0.9-5.3c-1.6-3.9-4.5-6.6-8.8-8
		c-3.2-1.2-6.5-2-9.8-2.5c-6.6-1.3-13.2-1.3-19.7,0c-6,1.1-11.6,3.5-16.6,7.3c-5.1,3.7-9.5,8.3-13.2,13.6l2.3,0.9
		C119.1,168,124.5,168.4,129.7,170.7z"/>
	<path class="st3" d="M194.3,239.5c-1.7-2.7-4.3-4-7.8-3.9c-4.3,0.1-8.2,1.6-11.5,4.5c-2,2.4-3.9,4.9-5.7,7.3
		c-0.6,0.6-1.2,1.2-1.9,1.7c-1.8,1.3-3.7,1.9-5.9,2.1l-1,0.8c4.7,3.7,10,5.5,15.9,5.3c8.1-0.6,14.4-4,19.3-10.2
		c0.6-0.9,0.9-1.9,0.6-3c-0.1-0.7-0.3-1.5-0.5-2.2l-3.8,2.2c0.7-0.6,1.3-1.4,1.8-2.2C194.2,241.1,194.4,240.4,194.3,239.5z"/>
	<path class="st3" d="M220.8,154l-1-0.8c-3.2,6.3-3.8,12.7-1.8,19.3c1.2,3.9,3.1,7.5,5.8,10.7c2,2.3,4.4,3.8,7.2,4.3
		c1.6,0.4,2.9,0.1,4.2-0.9l-2.8-3.4c2,2,4,2.2,6,0.7c0.7-0.4,1-1,1.2-1.8c0.9-4,0.3-7.7-1.6-11.2c-2.4-4.3-6-7.4-10.7-9.1
		c-1.1-0.4-2.1-1-3-1.8C222.6,158.4,221.4,156.4,220.8,154z"/>
	<path class="st3" d="M259.7,132.9c-1.7-5-4.3-9.5-7.9-13.5c-5.9-6.5-13.2-10.7-22.1-12.3l0.1,2c2.6,3.3,4,7.1,4,11.3
		c0,1.5-0.2,2.8-0.6,4.2c-1,3.8-1.8,7.7-2.1,11.6c0.3,2.2,0.7,4.5,1.3,6.7c1.1,4.8,3.4,8.8,7,12.1c2.3,2,4.9,3.5,7.7,4.4
		c1,0.3,1.9,0.2,2.7-0.4c2.7-1.6,4-4.1,3.9-7.5l1.2,6.6c0.7-0.2,1.3-0.5,1.9-0.7c3-1.5,4.7-4,5-7.5
		C262.2,144,261.4,138.4,259.7,132.9z"/>
	<path class="st3" d="M281.1,167.5c2.1-6.7,1.4-13.1-1.9-19.3l-1,0.8c-0.4,1.8-1.1,3.4-2.3,4.7c-2,2.7-4.6,4.4-7.7,5.3
		c-2,0.7-3.6,1.7-4.9,3.2c-3.9,4.3-5.1,9.3-3.9,14.9c0.2,0.9,0.5,1.5,1.2,1.9c2,1.4,4,1.1,6-0.8l-2.8,3.4c1,0.7,2.1,1.1,3.3,1.3
		c0.7-0.2,1.3-0.4,1.8-0.7C274.9,179,278.9,174.1,281.1,167.5z"/>
	<path class="st3" d="M375.8,224.6c0.6-0.2,1.1-0.4,1.8-0.6c-3.9-5.9-9-10.3-15.2-13.3c-7.1-3.3-14.6-4.3-22.6-2.8
		c-5,0.7-9.7,2.5-14,5.2c-1.5,1-2.5,2.3-3.2,4s-1,3.4-0.8,5.3l6.4-1.7c-2.6,1.4-4.4,3.4-5.2,6.2c-0.3,1.2-0.1,2.3,0.7,3.2
		c3.4,3.9,7.7,6.2,12.9,7c5.5,0.8,10.7-0.2,15.5-2.8c2.2-1.2,4.2-2.6,6-4.3c1.5-1.3,3-2.5,4.8-3.5c2.2-1.3,4.8-2,7.5-2
		C372.2,224.4,374,224.5,375.8,224.6z"/>
	<path class="st3" d="M307.3,119.4c0.3-0.6,0.6-1.2,1-1.8l-0.1-1.6c-5.8,1.7-10.6,4.9-14.6,9.4c-2.2,2.4-3.8,5.1-4.9,8.2
		c-2.1,5.8-2.6,11.6-1.4,17.5c0.3,1.3,0.9,2.4,1.8,3.4c1.1,0.9,2.2,1.5,3.6,1.6l0.5-5.1c0.1,2.6,1.2,4.4,3.5,5.4
		c0.6,0.2,1.2,0.2,1.9,0.1c2.5-1,4.6-2.5,6.3-4.6c3.3-4,4.8-8.7,4.4-13.9c-0.1-1.4-0.5-2.8-1.1-4
		C305.6,129.2,305.3,124.4,307.3,119.4z"/>
	<path class="st3" d="M402.9,107.5l1.5-0.6c-3.8-5.5-8.8-9.4-15.1-11.5c-3.7-1.2-7.7-1.7-11.7-1.4c-5.2,0.2-9.8,1.7-14,4.8
		c-1,0.8-1.6,1.9-1.8,3.1c-0.2,1-0.2,1.8-0.3,2.8l5-1.1c-3.1,1.1-4.2,3.1-3.7,5.8c0.1,0.8,0.6,1.5,1.1,2c2.9,2.6,6.2,4.3,10,4.8
		c5,0.5,9.5-0.8,13.4-3.8c1.3-1,2.6-1.9,3.8-2.7C394.8,107.2,398.6,106.5,402.9,107.5z"/>
</g>
<g id="Layer_7">
	<g>
		<path class="st4" d="M459.4,180.6V97.8h17.5v68.3h33.6v14.5H459.4z"/>
		<path class="st4" d="M524.9,97.8h47.7v14.4h-30.2v18.2h28.1v14.4h-28.1v21.3h30.2v14.5h-47.7V97.8z"/>
		<path class="st4" d="M608.6,97.4h21.5l29.3,83.2h-18.9l-6-19.7h-30.2l-6,19.7h-18.9L608.6,97.4z M608.8,146.1h21.6l-6-19.3
			c-1.2-3.8-3.7-12.1-4.9-16.6c-1,4.4-3.9,14.3-4.8,16.6L608.8,146.1z"/>
		<path class="st4" d="M669.9,180.6V97.8H694c22.6,0,33.1,8.1,33.1,24.8c0,11.4-7.3,18.2-15.4,21.9l24.4,36.1h-19.5l-19.7-31.8h-9.4
			v31.8H669.9z M687.4,134.5h5.7c11.6,0,16.2-3.9,16.2-11.5c0-7.9-5.3-10.9-16.6-10.9h-5.3V134.5z"/>
		<path class="st4" d="M746.4,97.8h22.2l36,62.1h0.3c-0.3-7.5-0.7-15.1-0.8-22.9V97.8h15.8v82.8h-22.3L761.5,118h-0.5l1,23.7v39
			h-15.7V97.8z"/>
		<path class="st4" d="M871.7,97.8v10l-10.1,4.6V166l10.1,4.6v10H834v-10l10.1-4.6v-53.6l-10.1-4.6v-10H871.7z"/>
		<path class="st4" d="M885.9,97.8H908l36,62.1h0.3c-0.3-7.5-0.7-15.1-0.8-22.9V97.8h15.8v82.8H937L901,118h-0.5l1,23.7v39h-15.7
			V97.8z"/>
		<path class="st4" d="M1011.6,134.1h32.8V177c-8.7,2.9-17.7,4.8-29.5,4.8c-24.7,0-38.5-14.8-38.5-42.7c0-25.9,15.3-42.5,43.3-42.5
			c8.8,0,17.6,2,24.6,5.1l-5.8,14c-5.1-2.7-11.8-4.5-18.9-4.5c-15.3,0-25.1,11.1-25.1,28.2c0,16.2,6.3,27.7,21.6,27.7
			c5,0,8-0.6,11.1-1.2v-17.3h-15.7V134.1z"/>
	</g>
	<g>
		<path class="st4" d="M482.8,230c-7.3,8.5-11,20.3-11,35c0,29.4,13.6,47.8,40.8,47.8c10.1,0,19.3-2,28.4-4.6v12.9
			c-8.8,3.3-17.4,4.8-30.5,4.8c-36.2,0-54.4-23.7-54.4-61.1c0-35.9,20.3-60.8,56.9-60.8c12.5,0,23.4,2.3,32.7,7l-6,12.6
			c-7.3-3.3-16.3-6.5-26.9-6.5C500,217.2,490.1,221.5,482.8,230z"/>
		<path class="st4" d="M566.9,205.8h66.2v13.1h-51.3v37h48.3v12.9h-48.3v42.3h51.3v13.1h-66.2V205.8z"/>
		<path class="st4" d="M659.2,205.8h17.3l63.2,98.1h0.7c-0.3-5-1.2-20.6-1.2-31.2v-66.9h13.9v118.5h-17.4l-63.4-98.4h-0.7
			c0.5,7.8,1.3,20.1,1.3,32.2v66.2h-13.8V205.8z"/>
		<path class="st4" d="M770.9,205.8h88.8v13.1h-36.9v105.4H808V218.9h-37V205.8z"/>
		<path class="st4" d="M877.7,324.3V205.8h32.7c29.4,0,43.2,11.1,43.2,33.7c0,18.9-12,27.7-23.7,31.7l32.5,53.1h-17.4l-28.7-49
			h-23.6v49H877.7z M892.6,262.7h17.8c19.3,0,27.7-7.8,27.7-22.6c0-15.4-9.1-21.4-28.6-21.4h-16.9V262.7z"/>
		<path class="st4" d="M980.9,205.8h66.2v13.1h-51.3v37h48.3v12.9h-48.3v42.3h51.3v13.1h-66.2V205.8z"/>
	</g>
</g>
</svg>
